<svg id="Capa_1" enable-background="new 0 0 510 510" height="512" viewBox="0 0 510 510" width="512" xmlns="http://www.w3.org/2000/svg" xmlns:xlink="http://www.w3.org/1999/xlink"><linearGradient id="lg1"><stop offset="0" stop-color="#fecec8"/><stop offset=".5725" stop-color="#fe73c5"/><stop offset="1" stop-color="#f1239a"/></linearGradient><linearGradient id="SVGID_1_" gradientUnits="userSpaceOnUse" x1="7" x2="302.244" xlink:href="#lg1" y1="418.893" y2="418.893"/><linearGradient id="SVGID_2_" gradientUnits="userSpaceOnUse" x1="-142" x2="279.304" xlink:href="#lg1" y1="418.893" y2="418.893"/><linearGradient id="lg2"><stop offset="0" stop-color="#c2fae3"/><stop offset=".5725" stop-color="#00f2a6"/><stop offset="1" stop-color="#07b27b"/></linearGradient><linearGradient id="SVGID_3_" gradientUnits="userSpaceOnUse" x1="0" x2="315.913" xlink:href="#lg2" y1="275.295" y2="275.295"/><linearGradient id="SVGID_4_" gradientUnits="userSpaceOnUse" x1="-142" x2="279.304" xlink:href="#lg2" y1="275.295" y2="275.295"/><linearGradient id="lg3"><stop offset="0" stop-color="#99e6fc"/><stop offset=".5042" stop-color="#01d0fb"/><stop offset=".5857" stop-color="#08c7f7"/><stop offset=".7226" stop-color="#1bacec"/><stop offset=".8971" stop-color="#3a82dc"/><stop offset="1" stop-color="#4f66d0"/></linearGradient><linearGradient id="SVGID_5_" gradientUnits="userSpaceOnUse" x1="23" x2="123.32" xlink:href="#lg3" y1="42.808" y2="42.808"/><linearGradient id="SVGID_6_" gradientUnits="userSpaceOnUse" x1="-9" x2="127" xlink:href="#lg3" y1="42.808" y2="42.808"/><linearGradient id="SVGID_7_" gradientUnits="userSpaceOnUse" x1="136" x2="227.444" xlink:href="#lg3" y1="42.808" y2="42.808"/><linearGradient id="SVGID_8_" gradientUnits="userSpaceOnUse" x1="98.51" x2="234.51" xlink:href="#lg3" y1="42.808" y2="42.808"/><linearGradient id="SVGID_9_" gradientUnits="userSpaceOnUse" x1="-8" x2="293.125" xlink:href="#lg3" y1="131.697" y2="131.697"/><linearGradient id="SVGID_10_" gradientUnits="userSpaceOnUse" x1="73" x2="256.011" xlink:href="#lg3" y1="131.697" y2="131.697"/><linearGradient id="lg4"><stop offset="0" stop-color="#fff3be"/><stop offset=".5725" stop-color="#ffd15b"/><stop offset="1" stop-color="#eca026"/></linearGradient><linearGradient id="SVGID_11_" gradientUnits="userSpaceOnUse" x1="278" x2="378.32" xlink:href="#lg4" y1="330.004" y2="330.004"/><linearGradient id="SVGID_12_" gradientUnits="userSpaceOnUse" x1="241" x2="377" xlink:href="#lg4" y1="330.004" y2="330.004"/><linearGradient id="SVGID_13_" gradientUnits="userSpaceOnUse" x1="391" x2="482.444" xlink:href="#lg4" y1="330.004" y2="330.004"/><linearGradient id="SVGID_14_" gradientUnits="userSpaceOnUse" x1="342.51" x2="478.51" xlink:href="#lg4" y1="330.004" y2="330.004"/><linearGradient id="SVGID_15_" gradientUnits="userSpaceOnUse" x1="247" x2="548.125" xlink:href="#lg4" y1="418.893" y2="418.893"/><linearGradient id="SVGID_16_" gradientUnits="userSpaceOnUse" x1="304" x2="487.011" xlink:href="#lg4" y1="418.893" y2="418.893"/><linearGradient id="SVGID_17_" gradientTransform="matrix(.707 .707 -.707 .707 267.728 -205.977)" gradientUnits="userSpaceOnUse" x1="253.984" x2="349.377" xlink:href="#lg1" y1="107.778" y2="107.778"/><linearGradient id="SVGID_18_" gradientTransform="matrix(.707 .707 -.707 .707 267.728 -205.977)" gradientUnits="userSpaceOnUse" x1="218.801" x2="348.122" xlink:href="#lg1" y1="107.778" y2="107.778"/><linearGradient id="SVGID_19_" gradientTransform="matrix(.707 .707 -.707 .707 267.728 -205.977)" gradientUnits="userSpaceOnUse" x1="361.435" x2="448.388" xlink:href="#lg1" y1="107.778" y2="107.778"/><linearGradient id="SVGID_20_" gradientTransform="matrix(.707 .707 -.707 .707 267.728 -205.977)" gradientUnits="userSpaceOnUse" x1="315.326" x2="444.647" xlink:href="#lg1" y1="107.778" y2="107.778"/><linearGradient id="SVGID_21_" gradientTransform="matrix(.707 .707 -.707 .707 267.728 -205.977)" gradientUnits="userSpaceOnUse" x1="224.506" x2="510.843" xlink:href="#lg1" y1="192.302" y2="192.302"/><linearGradient id="SVGID_22_" gradientTransform="matrix(.707 .707 -.707 .707 267.728 -205.977)" gradientUnits="userSpaceOnUse" x1="278.707" x2="452.731" xlink:href="#lg1" y1="192.302" y2="192.302"/><g><g><path d="m236.314 490.692h-217.628c-10.32 0-18.686-8.366-18.686-18.686v-106.226c0-10.32 8.366-18.686 18.686-18.686h217.629c10.32 0 18.686 8.366 18.686 18.686v106.227c-.001 10.319-8.367 18.685-18.687 18.685z" fill="url(#SVGID_1_)"/><path d="m255 365.788v106.22c0 10.317-8.363 18.68-18.68 18.68h-40.03c10.32 0 18.69-8.36 18.69-18.68v-70.242c0-16.38-13.279-29.658-29.658-29.658h-185.322v-6.33c0-10.317 8.363-18.68 18.68-18.68h217.63c10.322 0 18.69 8.368 18.69 18.69z" fill="url(#SVGID_2_)"/></g><g><path d="m236.314 347.094h-217.628c-10.32 0-18.686-8.366-18.686-18.686v-106.227c0-10.32 8.366-18.686 18.686-18.686h217.629c10.32 0 18.686 8.366 18.686 18.686v106.227c-.001 10.32-8.367 18.686-18.687 18.686z" fill="url(#SVGID_3_)"/><path d="m255 222.19v106.22c0 10.317-8.363 18.68-18.68 18.68h-40.03c10.32 0 18.69-8.36 18.69-18.68v-70.242c0-16.38-13.279-29.658-29.658-29.658h-185.322v-6.33c0-10.317 8.363-18.68 18.68-18.68h217.63c10.322 0 18.69 8.368 18.69 18.69z" fill="url(#SVGID_4_)"/></g><g><path d="m109.235 66.308h-70.98v-28.764c0-10.072 8.165-18.236 18.236-18.236h34.508c10.072 0 18.236 8.165 18.236 18.236z" fill="url(#SVGID_5_)"/><path d="m90.999 19.308h-25.011c10.072 0 18.236 8.165 18.236 18.236v28.764h25.011v-28.764c0-10.071-8.165-18.236-18.236-18.236z" fill="url(#SVGID_6_)"/><path d="m216.745 66.308h-70.98v-28.764c0-10.072 8.165-18.236 18.236-18.236h34.508c10.072 0 18.236 8.165 18.236 18.236z" fill="url(#SVGID_7_)"/><path d="m198.509 19.308h-25.011c10.072 0 18.236 8.165 18.236 18.236v28.764h25.011v-28.764c0-10.071-8.165-18.236-18.236-18.236z" fill="url(#SVGID_8_)"/><path d="m236.314 203.496h-217.628c-10.32 0-18.686-8.366-18.686-18.686v-106.227c0-10.32 8.366-18.686 18.686-18.686h217.629c10.32 0 18.686 8.366 18.686 18.686v106.227c-.001 10.32-8.367 18.686-18.687 18.686z" fill="url(#SVGID_9_)"/><path d="m236.314 59.898h-40.02c10.32 0 18.686 8.366 18.686 18.686v106.226c0 10.32-8.366 18.686-18.686 18.686h40.02c10.32 0 18.686-8.366 18.686-18.686v-106.227c0-10.319-8.366-18.685-18.686-18.685z" fill="url(#SVGID_10_)"/></g><g><path d="m364.235 353.504h-70.98v-28.764c0-10.072 8.165-18.236 18.236-18.236h34.508c10.072 0 18.236 8.165 18.236 18.236z" fill="url(#SVGID_11_)"/><path d="m345.999 306.504h-25.011c10.072 0 18.236 8.165 18.236 18.236v28.764h25.011v-28.764c0-10.071-8.165-18.236-18.236-18.236z" fill="url(#SVGID_12_)"/><path d="m471.745 353.504h-70.98v-28.764c0-10.072 8.165-18.236 18.236-18.236h34.508c10.072 0 18.236 8.165 18.236 18.236z" fill="url(#SVGID_13_)"/><path d="m453.509 306.504h-25.011c10.072 0 18.236 8.165 18.236 18.236v28.764h25.011v-28.764c0-10.071-8.165-18.236-18.236-18.236z" fill="url(#SVGID_14_)"/><path d="m491.314 490.692h-217.628c-10.32 0-18.686-8.366-18.686-18.686v-106.226c0-10.32 8.366-18.686 18.686-18.686h217.629c10.32 0 18.686 8.366 18.686 18.686v106.227c-.001 10.319-8.367 18.685-18.687 18.685z" fill="url(#SVGID_15_)"/><path d="m491.314 347.094h-40.02c10.32 0 18.686 8.366 18.686 18.686v106.227c0 10.32-8.366 18.686-18.686 18.686h40.02c10.32 0 18.686-8.366 18.686-18.686v-106.227c0-10.32-8.366-18.686-18.686-18.686z" fill="url(#SVGID_16_)"/></g><g><path d="m413.293 123.611-47.726-47.726 19.34-19.34c6.772-6.772 17.751-6.772 24.523 0l23.202 23.202c6.772 6.772 6.772 17.751 0 24.523z" fill="url(#SVGID_17_)"/><path d="m432.633 79.748-16.817-16.817c6.772 6.772 6.772 17.751 0 24.523l-19.34 19.34 16.817 16.817 19.34-19.34c6.772-6.772 6.772-17.751 0-24.523z" fill="url(#SVGID_18_)"/><path d="m485.581 195.899-47.726-47.726 19.34-19.34c6.772-6.772 17.751-6.772 24.523 0l23.202 23.202c6.772 6.772 6.772 17.751 0 24.523z" fill="url(#SVGID_19_)"/><path d="m504.921 152.036-16.817-16.817c6.772 6.772 6.772 17.751 0 24.523l-19.34 19.34 16.817 16.817 19.34-19.34c6.772-6.772 6.772-17.751 0-24.523z" fill="url(#SVGID_20_)"/><path d="m406.496 301.3-146.33-146.33c-6.939-6.939-6.939-18.189 0-25.128l71.425-71.425c6.939-6.939 18.189-6.939 25.128 0l146.33 146.33c6.939 6.939 6.939 18.189 0 25.128l-71.425 71.425c-6.939 6.939-18.189 6.939-25.128 0z" fill="url(#SVGID_21_)"/><path d="m503.049 204.747-26.909-26.909c6.939 6.939 6.939 18.189 0 25.128l-71.425 71.425c-6.939 6.939-18.189 6.939-25.128 0l26.909 26.909c6.939 6.939 18.189 6.939 25.128 0l71.425-71.425c6.939-6.939 6.939-18.189 0-25.128z" fill="url(#SVGID_22_)"/></g></g></svg>